<svg width="186" height="56" viewBox="0 0 186 56" fill="none" xmlns="http://www.w3.org/2000/svg">
<path d="M14.016 23.752C14.4 22.728 15.0293 21.96 15.904 21.448C16.8 20.936 17.792 20.68 18.88 20.68V25.288C17.6213 25.1387 16.4907 25.3947 15.488 26.056C14.5067 26.7173 14.016 27.816 14.016 29.352V37H9.888V21H14.016V23.752ZM24.1885 30.696C24.7432 32.7013 26.2472 33.704 28.7005 33.704C30.2792 33.704 31.4738 33.1707 32.2845 32.104L35.6125 34.024C34.0338 36.3067 31.7085 37.448 28.6365 37.448C25.9912 37.448 23.8685 36.648 22.2685 35.048C20.6685 33.448 19.8685 31.432 19.8685 29C19.8685 26.5893 20.6578 24.584 22.2365 22.984C23.8152 21.3627 25.8418 20.552 28.3165 20.552C30.6632 20.552 32.5938 21.3627 34.1085 22.984C35.6445 24.6053 36.4125 26.6107 36.4125 29C36.4125 29.5333 36.3592 30.0987 36.2525 30.696H24.1885ZM24.1245 27.496H32.2845C32.0498 26.408 31.5592 25.5973 30.8125 25.064C30.0872 24.5307 29.2552 24.264 28.3165 24.264C27.2072 24.264 26.2898 24.552 25.5645 25.128C24.8392 25.6827 24.3592 26.472 24.1245 27.496ZM48.1903 20.552C49.9396 20.552 51.3796 21.1387 52.5103 22.312C53.6623 23.4853 54.2383 25.1067 54.2383 27.176V37H50.1103V27.688C50.1103 26.6213 49.8223 25.8107 49.2463 25.256C48.6703 24.68 47.9023 24.392 46.9423 24.392C45.8756 24.392 45.0223 24.7227 44.3823 25.384C43.7423 26.0453 43.4223 27.0373 43.4223 28.36V37H39.2943V21H43.4223V22.792C44.4249 21.2987 46.0143 20.552 48.1903 20.552ZM69.891 14.6H74.019V37H69.891V35.112C68.675 36.6693 66.947 37.448 64.707 37.448C62.5523 37.448 60.707 36.6373 59.171 35.016C57.6563 33.3733 56.899 31.368 56.899 29C56.899 26.632 57.6563 24.6373 59.171 23.016C60.707 21.3733 62.5523 20.552 64.707 20.552C66.947 20.552 68.675 21.3307 69.891 22.888V14.6ZM62.275 32.264C63.1283 33.096 64.195 33.512 65.475 33.512C66.755 33.512 67.811 33.096 68.643 32.264C69.475 31.4107 69.891 30.3227 69.891 29C69.891 27.6773 69.475 26.6 68.643 25.768C67.811 24.9147 66.755 24.488 65.475 24.488C64.195 24.488 63.1283 24.9147 62.275 25.768C61.443 26.6 61.027 27.6773 61.027 29C61.027 30.3227 61.443 31.4107 62.275 32.264ZM81.2823 30.696C81.8369 32.7013 83.3409 33.704 85.7943 33.704C87.3729 33.704 88.5676 33.1707 89.3783 32.104L92.7063 34.024C91.1276 36.3067 88.8023 37.448 85.7303 37.448C83.0849 37.448 80.9623 36.648 79.3623 35.048C77.7623 33.448 76.9622 31.432 76.9622 29C76.9622 26.5893 77.7516 24.584 79.3303 22.984C80.9089 21.3627 82.9356 20.552 85.4103 20.552C87.7569 20.552 89.6876 21.3627 91.2023 22.984C92.7383 24.6053 93.5063 26.6107 93.5063 29C93.5063 29.5333 93.4529 30.0987 93.3463 30.696H81.2823ZM81.2183 27.496H89.3783C89.1436 26.408 88.6529 25.5973 87.9063 25.064C87.1809 24.5307 86.3489 24.264 85.4103 24.264C84.3009 24.264 83.3836 24.552 82.6583 25.128C81.9329 25.6827 81.4529 26.472 81.2183 27.496ZM100.662 33.128H107.766V37H95.126V34.248L101.878 24.872H95.446V21H107.446V23.752L100.662 33.128ZM120.979 21H125.523L119.443 37H114.739L108.659 21H113.203L117.075 32.2L120.979 21ZM140.52 35.016C138.877 36.6373 136.872 37.448 134.504 37.448C132.136 37.448 130.131 36.6373 128.488 35.016C126.867 33.3733 126.056 31.368 126.056 29C126.056 26.632 126.867 24.6373 128.488 23.016C130.131 21.3733 132.136 20.552 134.504 20.552C136.872 20.552 138.877 21.3733 140.52 23.016C142.163 24.6373 142.984 26.632 142.984 29C142.984 31.368 142.163 33.3733 140.52 35.016ZM131.4 32.168C132.232 33 133.267 33.416 134.504 33.416C135.741 33.416 136.776 33 137.608 32.168C138.44 31.336 138.856 30.28 138.856 29C138.856 27.72 138.44 26.664 137.608 25.832C136.776 25 135.741 24.584 134.504 24.584C133.267 24.584 132.232 25 131.4 25.832C130.589 26.664 130.184 27.72 130.184 29C130.184 30.28 130.589 31.336 131.4 32.168ZM156.448 21H160.576V37H156.448V35.208C155.445 36.7013 153.856 37.448 151.68 37.448C149.931 37.448 148.48 36.8613 147.328 35.688C146.197 34.5147 145.632 32.8933 145.632 30.824V21H149.76V30.312C149.76 31.3787 150.048 32.2 150.624 32.776C151.2 33.3307 151.968 33.608 152.928 33.608C153.995 33.608 154.848 33.2773 155.488 32.616C156.128 31.9547 156.448 30.9627 156.448 29.64V21ZM168.04 25.544C168.04 25.9707 168.317 26.3227 168.872 26.6C169.448 26.856 170.141 27.0907 170.952 27.304C171.762 27.496 172.573 27.752 173.384 28.072C174.194 28.3707 174.877 28.8827 175.432 29.608C176.008 30.3333 176.296 31.24 176.296 32.328C176.296 33.9707 175.677 35.24 174.44 36.136C173.224 37.0107 171.698 37.448 169.864 37.448C166.578 37.448 164.338 36.1787 163.144 33.64L166.728 31.624C167.197 33.0107 168.242 33.704 169.864 33.704C171.336 33.704 172.072 33.2453 172.072 32.328C172.072 31.9013 171.784 31.56 171.208 31.304C170.653 31.0267 169.97 30.7813 169.16 30.568C168.349 30.3547 167.538 30.088 166.728 29.768C165.917 29.448 165.224 28.9467 164.648 28.264C164.093 27.56 163.816 26.6853 163.816 25.64C163.816 24.0613 164.392 22.824 165.544 21.928C166.717 21.0107 168.168 20.552 169.896 20.552C171.197 20.552 172.381 20.8507 173.448 21.448C174.514 22.024 175.357 22.856 175.976 23.944L172.456 25.864C171.944 24.776 171.09 24.232 169.896 24.232C169.362 24.232 168.914 24.3493 168.552 24.584C168.21 24.8187 168.04 25.1387 168.04 25.544Z" fill="#432361"/>
</svg>
