<svg width="168" height="24" viewBox="0 0 168 24" fill="none" xmlns="http://www.w3.org/2000/svg">
<path d="M5.016 9.752C5.4 8.728 6.02933 7.96 6.904 7.448C7.8 6.936 8.792 6.68 9.88 6.68V11.288C8.62133 11.1387 7.49067 11.3947 6.488 12.056C5.50667 12.7173 5.016 13.816 5.016 15.352V23H0.888V7H5.016V9.752ZM15.1885 16.696C15.7432 18.7013 17.2472 19.704 19.7005 19.704C21.2792 19.704 22.4738 19.1707 23.2845 18.104L26.6125 20.024C25.0338 22.3067 22.7085 23.448 19.6365 23.448C16.9912 23.448 14.8685 22.648 13.2685 21.048C11.6685 19.448 10.8685 17.432 10.8685 15C10.8685 12.5893 11.6578 10.584 13.2365 8.984C14.8152 7.36267 16.8418 6.552 19.3165 6.552C21.6632 6.552 23.5938 7.36267 25.1085 8.984C26.6445 10.6053 27.4125 12.6107 27.4125 15C27.4125 15.5333 27.3592 16.0987 27.2525 16.696H15.1885ZM15.1245 13.496H23.2845C23.0498 12.408 22.5592 11.5973 21.8125 11.064C21.0872 10.5307 20.2552 10.264 19.3165 10.264C18.2072 10.264 17.2898 10.552 16.5645 11.128C15.8392 11.6827 15.3592 12.472 15.1245 13.496ZM39.1903 6.552C40.9396 6.552 42.3796 7.13867 43.5103 8.312C44.6623 9.48533 45.2383 11.1067 45.2383 13.176V23H41.1103V13.688C41.1103 12.6213 40.8223 11.8107 40.2463 11.256C39.6703 10.68 38.9023 10.392 37.9423 10.392C36.8756 10.392 36.0223 10.7227 35.3823 11.384C34.7423 12.0453 34.4223 13.0373 34.4223 14.36V23H30.2943V7H34.4223V8.792C35.4249 7.29867 37.0143 6.552 39.1903 6.552ZM60.891 0.599998H65.019V23H60.891V21.112C59.675 22.6693 57.947 23.448 55.707 23.448C53.5523 23.448 51.707 22.6373 50.171 21.016C48.6563 19.3733 47.899 17.368 47.899 15C47.899 12.632 48.6563 10.6373 50.171 9.016C51.707 7.37333 53.5523 6.552 55.707 6.552C57.947 6.552 59.675 7.33067 60.891 8.888V0.599998ZM53.275 18.264C54.1283 19.096 55.195 19.512 56.475 19.512C57.755 19.512 58.811 19.096 59.643 18.264C60.475 17.4107 60.891 16.3227 60.891 15C60.891 13.6773 60.475 12.6 59.643 11.768C58.811 10.9147 57.755 10.488 56.475 10.488C55.195 10.488 54.1283 10.9147 53.275 11.768C52.443 12.6 52.027 13.6773 52.027 15C52.027 16.3227 52.443 17.4107 53.275 18.264ZM72.2823 16.696C72.8369 18.7013 74.3409 19.704 76.7943 19.704C78.3729 19.704 79.5676 19.1707 80.3783 18.104L83.7063 20.024C82.1276 22.3067 79.8023 23.448 76.7303 23.448C74.0849 23.448 71.9623 22.648 70.3623 21.048C68.7623 19.448 67.9622 17.432 67.9622 15C67.9622 12.5893 68.7516 10.584 70.3303 8.984C71.9089 7.36267 73.9356 6.552 76.4103 6.552C78.7569 6.552 80.6876 7.36267 82.2023 8.984C83.7383 10.6053 84.5063 12.6107 84.5063 15C84.5063 15.5333 84.4529 16.0987 84.3463 16.696H72.2823ZM72.2183 13.496H80.3783C80.1436 12.408 79.6529 11.5973 78.9063 11.064C78.1809 10.5307 77.3489 10.264 76.4103 10.264C75.3009 10.264 74.3836 10.552 73.6583 11.128C72.9329 11.6827 72.4529 12.472 72.2183 13.496ZM91.662 19.128H98.766V23H86.126V20.248L92.878 10.872H86.446V7H98.446V9.752L91.662 19.128ZM111.979 7H116.523L110.443 23H105.739L99.6585 7H104.203L108.075 18.2L111.979 7ZM131.52 21.016C129.877 22.6373 127.872 23.448 125.504 23.448C123.136 23.448 121.131 22.6373 119.488 21.016C117.867 19.3733 117.056 17.368 117.056 15C117.056 12.632 117.867 10.6373 119.488 9.016C121.131 7.37333 123.136 6.552 125.504 6.552C127.872 6.552 129.877 7.37333 131.52 9.016C133.163 10.6373 133.984 12.632 133.984 15C133.984 17.368 133.163 19.3733 131.52 21.016ZM122.4 18.168C123.232 19 124.267 19.416 125.504 19.416C126.741 19.416 127.776 19 128.608 18.168C129.44 17.336 129.856 16.28 129.856 15C129.856 13.72 129.44 12.664 128.608 11.832C127.776 11 126.741 10.584 125.504 10.584C124.267 10.584 123.232 11 122.4 11.832C121.589 12.664 121.184 13.72 121.184 15C121.184 16.28 121.589 17.336 122.4 18.168ZM147.448 7H151.576V23H147.448V21.208C146.445 22.7013 144.856 23.448 142.68 23.448C140.931 23.448 139.48 22.8613 138.328 21.688C137.197 20.5147 136.632 18.8933 136.632 16.824V7H140.76V16.312C140.76 17.3787 141.048 18.2 141.624 18.776C142.2 19.3307 142.968 19.608 143.928 19.608C144.995 19.608 145.848 19.2773 146.488 18.616C147.128 17.9547 147.448 16.9627 147.448 15.64V7ZM159.04 11.544C159.04 11.9707 159.317 12.3227 159.872 12.6C160.448 12.856 161.141 13.0907 161.952 13.304C162.762 13.496 163.573 13.752 164.384 14.072C165.194 14.3707 165.877 14.8827 166.432 15.608C167.008 16.3333 167.296 17.24 167.296 18.328C167.296 19.9707 166.677 21.24 165.44 22.136C164.224 23.0107 162.698 23.448 160.864 23.448C157.578 23.448 155.338 22.1787 154.144 19.64L157.728 17.624C158.197 19.0107 159.242 19.704 160.864 19.704C162.336 19.704 163.072 19.2453 163.072 18.328C163.072 17.9013 162.784 17.56 162.208 17.304C161.653 17.0267 160.97 16.7813 160.16 16.568C159.349 16.3547 158.538 16.088 157.728 15.768C156.917 15.448 156.224 14.9467 155.648 14.264C155.093 13.56 154.816 12.6853 154.816 11.64C154.816 10.0613 155.392 8.824 156.544 7.928C157.717 7.01067 159.168 6.552 160.896 6.552C162.197 6.552 163.381 6.85067 164.448 7.448C165.514 8.024 166.357 8.856 166.976 9.944L163.456 11.864C162.944 10.776 162.09 10.232 160.896 10.232C160.362 10.232 159.914 10.3493 159.552 10.584C159.21 10.8187 159.04 11.1387 159.04 11.544Z" fill="white"/>
</svg>
